<?xml version="1.0" encoding="iso-8859-1"?>
<!-- Generator: Adobe Illustrator 19.0.0, SVG Export Plug-In . SVG Version: 6.00 Build 0)  -->
<svg version="1.1" id="Capa_1" xmlns="http://www.w3.org/2000/svg" xmlns:xlink="http://www.w3.org/1999/xlink" x="0px" y="0px"
	 viewBox="0 0 479.952 479.952" style="enable-background:new 0 0 479.952 479.952;" xml:space="preserve">
<g>
	<g>
		<path d="M280,197.016c0-0.336,0-0.672,0-1.008c-0.026-22.08-17.92-39.974-40-40h-0.4c-4.387-43.964-43.583-76.049-87.548-71.662
			c-34.9,3.482-63.463,29.292-70.452,63.662c-19.608-0.786-36.891,12.769-40.8,32H40c-22.091,0-40,17.909-40,40s17.909,40,40,40h232
			c17.673,0.017,32.014-14.295,32.032-31.968C304.046,213.423,294.156,200.655,280,197.016z M272,244.008H40
			c-13.255,0-24-10.745-24-24s10.745-24,24-24c2.07,0.017,4.131,0.285,6.136,0.8c4.286,1.073,8.63-1.532,9.703-5.818
			c0.251-1.001,0.305-2.041,0.161-3.062c0.044-13.224,10.776-23.92,24-23.92c2.096-0.009,4.183,0.26,6.208,0.8
			c4.261,1.169,8.662-1.338,9.831-5.599c0.122-0.445,0.206-0.901,0.249-1.361c3.349-35.187,34.589-60.997,69.776-57.648
			c32.885,3.13,57.985,30.774,57.936,63.808v1.04c-0.002,4.418,3.578,8.002,7.997,8.003c0.734,0,1.465-0.1,2.171-0.299
			c1.9-0.519,3.863-0.77,5.832-0.744c13.255,0,24,10.745,24,24c-0.013,2.07-0.281,4.131-0.8,6.136
			c-1.073,4.286,1.532,8.63,5.818,9.703c1.001,0.251,2.041,0.305,3.062,0.161c8.837,0.022,15.982,7.203,15.96,16.04
			C288.018,236.884,280.837,244.03,272,244.008z"/>
	</g>
</g>
<g>
	<g>
		<path d="M454.096,318.592c-6.894-23.368-30.147-37.913-54.176-33.888c-21.702-22.036-57.158-22.307-79.194-0.605
			c-4.75,4.677-8.626,10.165-11.446,16.206c-1.753-0.199-3.516-0.298-5.28-0.296c-26.51,0-48,21.49-48,48c0,26.51,21.49,48,48,48
			h136c22.091-0.026,39.979-17.956,39.952-40.048C479.933,339.342,469.64,324.468,454.096,318.592z M463.083,361.742
			c-2.619,10.646-12.12,18.164-23.083,18.265H304c-17.673,0.014-32.011-14.302-32.025-31.975
			c-0.014-17.673,14.302-32.011,31.975-32.025c2.802-0.002,5.592,0.364,8.299,1.088c4.125,1.103,8.39-1.228,9.688-5.296
			c6.737-21.039,29.254-32.633,50.293-25.896c7.336,2.349,13.837,6.766,18.723,12.72c2.013,2.434,5.269,3.456,8.312,2.608
			c17.079-4.777,34.798,5.196,39.575,22.275c0.258,0.922,0.474,1.855,0.649,2.797c0.551,3.144,2.919,5.659,6.024,6.4
			C458.383,335.87,466.25,348.872,463.083,361.742z"/>
	</g>
</g>
<g>
	<g>
		<path d="M136,348.008h-0.8c-4.439-21.641-25.581-35.586-47.222-31.147c-10.87,2.23-20.326,8.875-26.106,18.347
			c-15.906-7.703-35.045-1.054-42.748,14.852s-1.054,35.045,14.852,42.748c4.371,2.117,9.168,3.211,14.025,3.2h88
			c13.255,0,24-10.745,24-24S149.255,348.008,136,348.008z M136,380.008H48c-8.837,0-16-7.163-16-16s7.163-16,16-16
			c4.283-0.038,8.389,1.7,11.344,4.8c2.993,3.25,8.054,3.458,11.304,0.465c1.104-1.016,1.899-2.322,2.296-3.769
			c3.68-12.734,16.986-20.073,29.72-16.393c10.212,2.951,17.266,12.268,17.336,22.897c0,4.418,3.582,8,8,8h8c4.418,0,8,3.582,8,8
			S140.418,380.008,136,380.008z"/>
	</g>
</g>
<g>
</g>
<g>
</g>
<g>
</g>
<g>
</g>
<g>
</g>
<g>
</g>
<g>
</g>
<g>
</g>
<g>
</g>
<g>
</g>
<g>
</g>
<g>
</g>
<g>
</g>
<g>
</g>
<g>
</g>
</svg>
