<svg id="Capa_1" enable-background="new 0 0 512 512" height="512" viewBox="0 0 512 512" width="512" xmlns="http://www.w3.org/2000/svg"><g><circle cx="286" cy="196" r="10"/><circle cx="226" cy="196" r="10"/><path d="m390.351 376.209c-3.905-3.904-10.237-3.904-14.142 0-3.905 3.905-3.905 10.237 0 14.143l42.43 42.43c3.906 3.905 10.237 3.904 14.142 0 3.905-3.905 3.905-10.237 0-14.143z"/><path d="m93.361 79.219c-3.905-3.904-10.237-3.904-14.142 0-3.905 3.905-3.905 10.237 0 14.143l42.43 42.43c3.906 3.905 10.237 3.904 14.142 0 3.905-3.905 3.905-10.237 0-14.143z"/><path d="m135.792 376.209c-3.905-3.903-10.237-3.904-14.142 0l-42.43 42.43c-3.905 3.905-3.906 10.237 0 14.143 3.906 3.905 10.237 3.905 14.142 0l42.43-42.43c3.904-3.906 3.904-10.238 0-14.143z"/><path d="m418.639 79.219-42.43 42.43c-3.905 3.905-3.905 10.237 0 14.143 3.906 3.905 10.237 3.905 14.142 0l42.43-42.43c3.905-3.905 3.906-10.237 0-14.143-3.905-3.904-10.237-3.905-14.142 0z"/><path d="m327.121 453.837c2.108 5.087 7.948 7.532 13.066 5.411 5.102-2.113 7.525-7.964 5.411-13.065l-11.48-27.71c-2.114-5.104-7.964-7.526-13.066-5.411-5.102 2.113-7.525 7.964-5.411 13.065z"/><path d="m190.948 98.938c5.102-2.113 7.525-7.964 5.411-13.065l-11.48-27.71c-2.114-5.103-7.962-7.526-13.066-5.411-5.102 2.113-7.525 7.964-5.411 13.065l11.48 27.71c2.107 5.088 7.947 7.532 13.066 5.411z"/><path d="m98.938 321.053c-2.114-5.104-7.963-7.524-13.066-5.411l-27.71 11.48c-5.102 2.113-7.525 7.964-5.411 13.065 2.107 5.087 7.947 7.532 13.066 5.411l27.71-11.48c5.103-2.113 7.526-7.964 5.411-13.065z"/><path d="m413.062 190.947c2.107 5.087 7.947 7.532 13.066 5.411l27.71-11.48c5.102-2.113 7.525-7.964 5.411-13.065-2.114-5.104-7.964-7.524-13.066-5.411l-27.71 11.48c-5.103 2.113-7.526 7.964-5.411 13.065z"/><path d="m177.881 418.473-11.48 27.71c-2.114 5.102.309 10.952 5.411 13.065 5.141 2.13 10.967-.346 13.066-5.411l11.48-27.71c2.114-5.102-.309-10.952-5.411-13.065-5.101-2.113-10.951.308-13.066 5.411z"/><path d="m334.119 93.527 11.48-27.71c2.114-5.102-.309-10.952-5.411-13.065-5.103-2.113-10.952.31-13.066 5.411l-11.48 27.71c-2.114 5.102.309 10.952 5.411 13.065 5.141 2.13 10.967-.345 13.066-5.411z"/><path d="m52.752 171.813c-2.114 5.102.309 10.952 5.411 13.065l27.71 11.48c5.141 2.129 10.967-.346 13.066-5.411 2.114-5.102-.309-10.952-5.411-13.065l-27.71-11.48c-5.101-2.113-10.952.308-13.066 5.411z"/><path d="m453.837 327.122-27.71-11.48c-5.101-2.113-10.952.309-13.066 5.411s.309 10.952 5.411 13.065l27.71 11.48c5.141 2.129 10.967-.346 13.066-5.411 2.114-5.101-.309-10.952-5.411-13.065z"/><path d="m246 436v66c0 5.522 4.477 10 10 10s10-4.478 10-10v-66c0-5.522-4.477-10-10-10s-10 4.478-10 10z"/><path d="m266 76v-66c0-5.522-4.477-10-10-10s-10 4.478-10 10v66c0 5.522 4.477 10 10 10s10-4.478 10-10z"/><path d="m86 256c0-5.522-4.477-10-10-10h-66c-5.523 0-10 4.478-10 10s4.477 10 10 10h66c5.523 0 10-4.478 10-10z"/><path d="m502 246h-66c-5.523 0-10 4.478-10 10s4.477 10 10 10h66c5.523 0 10-4.478 10-10s-4.477-10-10-10z"/><path d="m196 246c-5.523 0-10 4.478-10 10 0 38.598 31.402 70 70 70s70-31.402 70-70c0-5.522-4.477-10-10-10s-10 4.478-10 10c0 27.57-22.43 50-50 50s-50-22.43-50-50c0-5.522-4.477-10-10-10z"/><circle cx="341" cy="341" r="10"/><path d="m126 256c0 71.683 58.318 130 130 130 17.933 0 35.316-3.603 51.666-10.709 5.065-2.201 7.387-8.092 5.186-13.156-2.201-5.066-8.092-7.388-13.157-5.186-13.82 6.006-28.521 9.051-43.695 9.051-60.654 0-110-49.346-110-110s49.346-110 110-110 110 49.346 110 110c0 15.174-3.045 29.875-9.052 43.694-2.201 5.065.12 10.956 5.186 13.157 5.065 2.204 10.956-.12 13.157-5.185 7.106-16.35 10.709-33.732 10.709-51.666 0-71.683-58.318-130-130-130s-130 58.317-130 130z"/></g></svg>